HIERARCHY
ROOT Hips
{
	OFFSET 0.000000 1.471914 24.280096
	CHANNELS 6 Xposition Yposition Zposition Xrotation Yrotation Zrotation
	JOINT Spine
	{
		OFFSET 0.000000 0.900110 1.860670
		CHANNELS 6 Xposition Yposition Zposition Xrotation Yrotation Zrotation
		JOINT Spine1
		{
			OFFSET 0.000000 0.400320 2.270309
			CHANNELS 6 Xposition Yposition Zposition Xrotation Yrotation Zrotation
			JOINT Spine2
			{
				OFFSET 0.000000 0.200920 2.296560
				CHANNELS 6 Xposition Yposition Zposition Xrotation Yrotation Zrotation
				JOINT Spine3
				{
					OFFSET 0.000000 0.000000 2.305330
					CHANNELS 6 Xposition Yposition Zposition Xrotation Yrotation Zrotation
					JOINT Neck
					{
						OFFSET 0.000000 -0.864490 6.051487
						CHANNELS 6 Xposition Yposition Zposition Xrotation Yrotation Zrotation
						JOINT Head
						{
							OFFSET 0.000000 -0.550429 3.121674
							CHANNELS 6 Xposition Yposition Zposition Xrotation Yrotation Zrotation
							End Site
							{
								OFFSET 0.000000 0.000000 3.731750
							}
						}
					}
					JOINT RightShoulder
					{
						OFFSET -0.788280 -1.313800 4.256718
						CHANNELS 6 Xposition Yposition Zposition Xrotation Yrotation Zrotation
						JOINT RightArm
						{
							OFFSET -3.915130 0.000000 0.000000
							CHANNELS 6 Xposition Yposition Zposition Xrotation Yrotation Zrotation
							JOINT RightForeArm
							{
								OFFSET -6.914910 0.000000 0.000000
								CHANNELS 6 Xposition Yposition Zposition Xrotation Yrotation Zrotation
								JOINT RightHand
								{
									OFFSET -6.096219 0.000000 0.000000
									CHANNELS 6 Xposition Yposition Zposition Xrotation Yrotation Zrotation
									JOINT RightHandEnd
									{
										OFFSET -1.749950 0.000000 0.000000
										CHANNELS 6 Xposition Yposition Zposition Xrotation Yrotation Zrotation
										End Site
										{
											OFFSET -1.749950 0.000000 0.000000
										}
									}
									JOINT RightHandThumb1
									{
										OFFSET -0.699980 -1.166630 -0.466648
										CHANNELS 6 Xposition Yposition Zposition Xrotation Yrotation Zrotation
										End Site
										{
											OFFSET -1.690319 -0.452920 0.000000
										}
									}
								}
							}
						}
					}
					JOINT LeftShoulder
					{
						OFFSET 0.788280 -1.313800 4.256718
						CHANNELS 6 Xposition Yposition Zposition Xrotation Yrotation Zrotation
						JOINT LeftArm
						{
							OFFSET 3.915130 0.000000 0.000000
							CHANNELS 6 Xposition Yposition Zposition Xrotation Yrotation Zrotation
							JOINT LeftForeArm
							{
								OFFSET 6.914910 0.000000 0.000000
								CHANNELS 6 Xposition Yposition Zposition Xrotation Yrotation Zrotation
								JOINT LeftHand
								{
									OFFSET 6.096219 0.000000 0.000000
									CHANNELS 6 Xposition Yposition Zposition Xrotation Yrotation Zrotation
									JOINT LeftHandEnd
									{
										OFFSET 1.749950 0.000000 0.000000
										CHANNELS 6 Xposition Yposition Zposition Xrotation Yrotation Zrotation
										End Site
										{
											OFFSET 1.749950 0.000000 0.000000
										}
									}
									JOINT LeftHandThumb1
									{
										OFFSET 0.699980 -1.166630 -0.466648
										CHANNELS 6 Xposition Yposition Zposition Xrotation Yrotation Zrotation
										End Site
										{
											OFFSET 1.690319 -0.452920 0.000000
										}
									}
								}
							}
						}
					}
				}
			}
		}
	}
	JOINT RightUpLeg
	{
		OFFSET -2.338570 -0.252550 -0.551512
		CHANNELS 6 Xposition Yposition Zposition Xrotation Yrotation Zrotation
		JOINT RightLeg
		{
			OFFSET 0.000000 0.000000 -10.744959
			CHANNELS 6 Xposition Yposition Zposition Xrotation Yrotation Zrotation
			JOINT RightFoot
			{
				OFFSET 0.000000 -0.000001 -10.930849
				CHANNELS 6 Xposition Yposition Zposition Xrotation Yrotation Zrotation
				JOINT RightToeBase
				{
					OFFSET 0.000000 -4.087269 -1.487650
					CHANNELS 6 Xposition Yposition Zposition Xrotation Yrotation Zrotation
					End Site
					{
						OFFSET 0.000000 -1.891870 0.000000
					}
				}
			}
		}
	}
	JOINT LeftUpLeg
	{
		OFFSET 2.338570 -0.252550 -0.551512
		CHANNELS 6 Xposition Yposition Zposition Xrotation Yrotation Zrotation
		JOINT LeftLeg
		{
			OFFSET 0.000000 0.000000 -10.744959
			CHANNELS 6 Xposition Yposition Zposition Xrotation Yrotation Zrotation
			JOINT LeftFoot
			{
				OFFSET 0.000000 -0.000001 -10.930849
				CHANNELS 6 Xposition Yposition Zposition Xrotation Yrotation Zrotation
				JOINT LeftToeBase
				{
					OFFSET 0.000000 -4.087269 -1.487650
					CHANNELS 6 Xposition Yposition Zposition Xrotation Yrotation Zrotation
					End Site
					{
						OFFSET 0.000000 -1.891870 0.000000
					}
				}
			}
		}
	}
}
MOTION
Frames: 7
Frame Time: 0.041667
-0.000018 26.534456 40.176464 -8.333206 1.080015 -25.041659 -0.000003 0.900096 1.860706 13.848855 -2.575758 -0.680332 -0.000001 0.400312 2.270283 -0.000006 0.000000 0.000004 0.000013 0.200931 2.296516 0.000000 0.000001 0.000004 0.000009 -0.000040 2.305345 -0.000012 -0.000000 5.401881 -0.000013 -0.864467 6.051506 9.186583 -2.802403 -174.565620 0.000016 -0.550440 3.121696 0.000003 0.000000 -0.000003 -0.788292 -1.313764 4.256748 -215.358337 15.316213 0.298284 -3.915097 -0.000015 -0.000012 -0.000003 -0.000000 -0.000004 -6.914875 0.000009 0.000001 -0.000004 -0.000023 -54.918956 -6.096190 -0.000013 0.000004 0.000052 0.000134 -0.000014 -1.749931 0.000009 -0.000001 -0.000002 0.000001 0.000000 -0.700010 -1.166610 -0.466649 0.000006 0.000006 -0.000013 0.788267 -1.313810 4.256705 -223.919897 -16.274510 -26.089634 3.915142 -0.000007 0.000015 -0.000001 0.000003 0.000001 6.914897 -0.000008 -0.000012 0.000006 0.000017 52.287414 6.096231 0.000049 0.000005 0.000080 -0.000117 -0.000026 1.749938 0.000011 -0.000000 0.000002 -0.000001 0.000004 0.699982 -1.166606 -0.466660 0.000010 0.000000 -0.000020 -2.338582 -0.252556 -0.551517 17.809775 -3.933769 -0.868066 0.000005 -0.000003 -10.744946 5.010410 3.505284 -0.577170 -0.000019 0.000007 -10.930857 0.000017 -0.000006 -0.000001 0.000008 -4.087275 -1.487638 0.000001 -0.000000 0.000000 2.338568 -0.252550 -0.551451 7.484610 -4.957127 -0.372598 -0.000006 -0.000006 -10.744917 14.560538 -2.348330 -1.979477 -0.000000 -0.000001 -10.930865 0.000031 -0.000004 0.000002 -0.000011 -4.087230 -1.487644 -0.000001 -0.000001 -0.000000 
-0.000006 26.534445 40.176453 -8.195593 2.150559 -25.700839 -0.000006 0.900095 1.860704 13.907770 -3.033317 -0.601325 0.000000 0.400308 2.270289 -0.000006 -0.000001 -0.000000 0.000014 0.200927 2.296520 -0.000000 0.000000 -0.000000 0.000009 -0.000038 2.305337 -0.000014 -0.000003 5.295731 -0.000013 -0.864473 6.051509 9.946704 -2.949147 -173.184446 0.000015 -0.550442 3.121696 0.000004 -0.000001 -0.000001 -0.788291 -1.313768 4.256754 -211.752393 15.244822 -0.076777 -3.915098 -0.000017 -0.000011 -0.000000 -0.000003 -0.000004 -6.914877 0.000008 0.000004 -0.000003 -0.000022 -53.285482 -6.096190 -0.000019 0.000007 0.000049 0.000131 -0.000009 -1.749927 0.000011 -0.000000 -0.000002 -0.000002 -0.000004 -0.700009 -1.166608 -0.466651 0.000005 0.000002 -0.000015 0.788267 -1.313811 4.256713 -224.541431 -14.925290 -24.998641 3.915143 -0.000012 0.000007 -0.000005 0.000003 -0.000001 6.914896 -0.000009 -0.000013 0.000005 0.000016 52.642098 6.096231 0.000045 -0.000003 0.000078 -0.000117 -0.000028 1.749933 0.000015 0.000008 0.000001 0.000002 -0.000001 0.699981 -1.166607 -0.466651 0.000010 -0.000002 -0.000020 -2.338584 -0.252555 -0.551521 18.076128 -4.381741 -0.774893 0.000004 -0.000005 -10.744945 4.883289 2.803174 -0.573306 -0.000018 0.000008 -10.930857 0.000017 -0.000006 -0.000000 0.000007 -4.087273 -1.487641 0.000001 0.000000 -0.000001 2.338566 -0.252550 -0.551457 8.047469 -5.494069 -0.352618 -0.000005 -0.000010 -10.744915 14.480355 -2.946096 -2.023307 -0.000000 -0.000007 -10.930865 0.000026 -0.000004 0.000006 -0.000014 -4.087231 -1.487644 0.000004 -0.000003 0.000005 
0.000017 26.534441 40.176472 -7.847626 3.771479 -26.738350 -0.000006 0.900095 1.860699 13.985946 -4.105830 -0.409940 -0.000000 0.400309 2.270285 -0.000007 0.000000 0.000003 0.000013 0.200931 2.296522 -0.000000 -0.000001 0.000002 0.000008 -0.000038 2.305345 -0.000012 -0.000002 5.083615 -0.000013 -0.864469 6.051510 10.475004 -3.779666 -172.327326 0.000016 -0.550436 3.121696 0.000002 0.000001 -0.000003 -0.788292 -1.313764 4.256748 -207.029017 15.585261 -1.220503 -3.915098 -0.000015 -0.000015 0.000001 -0.000003 -0.000005 -6.914874 0.000013 0.000004 0.000001 -0.000026 -52.818177 -6.096190 -0.000015 0.000004 0.000054 0.000135 -0.000010 -1.749926 0.000008 -0.000000 0.000001 0.000002 0.000002 -0.700007 -1.166612 -0.466648 0.000006 0.000002 -0.000011 0.788264 -1.313809 4.256710 -223.749498 -13.560553 -23.250932 3.915143 -0.000013 0.000015 -0.000005 0.000002 -0.000001 6.914899 -0.000009 -0.000016 0.000005 0.000013 52.342632 6.096234 0.000050 0.000006 0.000082 -0.000116 -0.000033 1.749938 0.000011 0.000007 0.000003 0.000002 -0.000002 0.699984 -1.166605 -0.466651 0.000010 0.000000 -0.000021 -2.338583 -0.252557 -0.551526 18.417366 -5.369283 -0.533775 0.000005 -0.000005 -10.744945 4.839103 2.478157 -0.587053 -0.000018 0.000009 -10.930854 0.000014 -0.000005 -0.000002 0.000009 -4.087273 -1.487640 -0.000002 -0.000001 0.000001 2.338566 -0.252551 -0.551456 8.448772 -6.110280 -0.250931 -0.000005 -0.000009 -10.744913 15.230586 -4.432976 -2.087274 0.000001 -0.000008 -10.930868 0.000029 -0.000003 0.000001 -0.000013 -4.087230 -1.487642 -0.000003 -0.000001 0.000001 
0.000024 26.534441 40.176476 -7.456115 5.289376 -27.327172 -0.000005 0.900097 1.860700 13.961015 -5.176366 -0.174451 -0.000000 0.400310 2.270287 -0.000006 -0.000000 0.000001 0.000012 0.200927 2.296513 0.000000 -0.000000 0.000002 0.000008 -0.000041 2.305337 -0.000012 -0.000002 4.975270 -0.000013 -0.864478 6.051503 11.242846 -4.723245 -172.122884 0.000017 -0.550437 3.121693 0.000003 -0.000000 -0.000003 -0.788289 -1.313774 4.256747 -203.174919 16.522426 -1.661788 -3.915096 -0.000018 -0.000019 -0.000002 -0.000004 -0.000004 -6.914876 0.000008 0.000012 -0.000001 -0.000021 -51.973792 -6.096190 -0.000018 0.000004 0.000050 0.000132 -0.000014 -1.749923 0.000010 -0.000008 0.000002 0.000001 0.000001 -0.700006 -1.166608 -0.466660 0.000003 0.000003 -0.000011 0.788269 -1.313819 4.256714 -222.265516 -12.652577 -21.582512 3.915142 -0.000015 0.000023 -0.000002 0.000002 0.000001 6.914900 -0.000007 -0.000016 0.000005 0.000014 51.730145 6.096229 0.000051 0.000005 0.000080 -0.000113 -0.000035 1.749939 0.000013 0.000008 0.000003 0.000000 -0.000000 0.699986 -1.166604 -0.466659 0.000015 0.000003 -0.000025 -2.338583 -0.252555 -0.551519 18.640158 -6.539386 -0.228491 0.000005 -0.000009 -10.744947 5.129231 2.621570 -0.644536 -0.000016 0.000006 -10.930855 0.000015 -0.000004 -0.000000 0.000007 -4.087271 -1.487637 0.000005 0.000002 0.000001 2.338567 -0.252550 -0.551454 9.033081 -7.241583 -0.114652 -0.000003 -0.000011 -10.744921 15.161500 -5.322217 -2.132350 -0.000000 -0.000003 -10.930867 0.000027 -0.000005 0.000003 -0.000012 -4.087225 -1.487641 0.000001 -0.000002 -0.000001 
0.000035 26.534430 40.176506 -7.250713 6.228686 -28.546009 -0.000006 0.900098 1.860699 13.963257 -5.501231 -0.059762 -0.000001 0.400309 2.270283 -0.000006 0.000000 0.000002 0.000013 0.200928 2.296511 -0.000000 0.000000 0.000002 0.000008 -0.000038 2.305341 -0.000013 -0.000003 5.176308 -0.000014 -0.864473 6.051507 12.076632 -4.846911 -171.488387 0.000014 -0.550437 3.121700 0.000003 -0.000001 -0.000001 -0.788290 -1.313771 4.256743 -200.328356 17.373092 -1.793107 -3.915100 -0.000018 -0.000019 -0.000002 -0.000001 -0.000004 -6.914874 0.000010 -0.000003 0.000001 -0.000022 -52.036086 -6.096192 -0.000017 0.000013 0.000051 0.000132 -0.000012 -1.749928 0.000010 -0.000007 -0.000002 -0.000001 0.000001 -0.700012 -1.166609 -0.466649 0.000001 0.000003 -0.000010 0.788267 -1.313817 4.256717 -220.507849 -11.365758 -19.568811 3.915146 -0.000015 0.000015 -0.000006 0.000002 -0.000003 6.914896 -0.000008 -0.000016 0.000008 0.000012 50.305788 6.096232 0.000051 0.000009 0.000083 -0.000119 -0.000026 1.749943 0.000012 0.000004 0.000000 -0.000003 0.000003 0.699989 -1.166607 -0.466655 0.000012 -0.000003 -0.000017 -2.338584 -0.252557 -0.551522 18.623009 -7.076605 -0.075949 0.000004 -0.000003 -10.744946 5.657096 3.173914 -0.718902 -0.000018 0.000007 -10.930855 0.000014 -0.000005 -0.000004 0.000010 -4.087271 -1.487639 0.000000 0.000001 -0.000005 2.338565 -0.252550 -0.551456 9.349290 -7.272371 -0.041111 -0.000005 -0.000007 -10.744911 15.433960 -6.620946 -2.059202 0.000001 -0.000002 -10.930868 0.000029 -0.000007 0.000000 -0.000014 -4.087229 -1.487644 0.000000 -0.000002 0.000000 
0.000033 26.534431 40.176498 -7.016861 6.985851 -28.837858 -0.000005 0.900096 1.860702 13.839141 -6.241328 -0.016685 -0.000001 0.400308 2.270291 -0.000007 -0.000000 -0.000001 0.000012 0.200925 2.296513 0.000000 -0.000000 0.000002 0.000008 -0.000035 2.305345 -0.000014 -0.000001 4.837153 -0.000012 -0.864471 6.051503 12.720592 -4.565920 -171.287866 0.000015 -0.550432 3.121689 0.000004 -0.000001 -0.000003 -0.788288 -1.313766 4.256749 -199.523950 18.610847 -1.222542 -3.915099 -0.000015 -0.000019 0.000002 -0.000002 -0.000006 -6.914876 0.000011 0.000001 0.000002 -0.000021 -52.393968 -6.096190 -0.000020 -0.000006 0.000046 0.000132 -0.000014 -1.749928 0.000010 -0.000003 -0.000000 0.000001 -0.000003 -0.700011 -1.166609 -0.466660 0.000006 0.000005 -0.000014 0.788268 -1.313812 4.256711 -218.341135 -10.684307 -18.162098 3.915145 -0.000014 0.000019 -0.000006 0.000003 -0.000001 6.914895 -0.000011 -0.000011 0.000005 0.000014 48.186964 6.096231 0.000049 0.000009 0.000080 -0.000112 -0.000026 1.749936 0.000006 -0.000000 0.000003 -0.000003 -0.000003 0.699984 -1.166612 -0.466659 0.000012 0.000003 -0.000021 -2.338584 -0.252556 -0.551519 18.713322 -7.274189 -0.019150 0.000003 -0.000003 -10.744945 6.096820 2.555169 -0.778416 -0.000018 0.000007 -10.930860 0.000014 -0.000004 -0.000002 0.000010 -4.087276 -1.487640 -0.000005 0.000001 -0.000002 2.338567 -0.252552 -0.551454 9.660796 -7.631794 -0.012450 -0.000005 -0.000007 -10.744914 15.443536 -7.010110 -2.115917 0.000000 -0.000004 -10.930866 0.000031 -0.000008 0.000000 -0.000009 -4.087225 -1.487641 0.000008 -0.000002 -0.000003 
0.000032 26.534426 40.176517 -6.899823 7.752262 -29.220051 -0.000006 0.900096 1.860696 13.627453 -6.815810 -0.000050 -0.000000 0.400309 2.270281 -0.000006 0.000000 0.000002 0.000011 0.200929 2.296516 0.000000 -0.000000 -0.000002 0.000008 -0.000039 2.305341 -0.000013 -0.000001 4.390676 -0.000013 -0.864472 6.051503 13.475816 -4.234569 -171.282512 0.000017 -0.550436 3.121696 0.000003 0.000003 -0.000003 -0.788289 -1.313765 4.256751 -198.618677 19.763043 -1.069175 -3.915097 -0.000018 -0.000015 -0.000002 -0.000003 -0.000002 -6.914877 0.000010 0.000001 0.000000 -0.000021 -52.575477 -6.096192 -0.000020 0.000005 0.000052 0.000137 -0.000017 -1.749929 0.000010 0.000004 -0.000001 0.000001 0.000001 -0.700007 -1.166608 -0.466652 0.000005 0.000005 -0.000011 0.788268 -1.313813 4.256714 -216.850897 -9.817606 -16.964417 3.915144 -0.000017 0.000023 -0.000004 0.000001 -0.000000 6.914897 -0.000006 -0.000012 0.000009 0.000010 46.876971 6.096230 0.000050 -0.000002 0.000079 -0.000114 -0.000032 1.749935 0.000015 -0.000003 0.000002 0.000005 -0.000003 0.699985 -1.166604 -0.466662 0.000010 0.000004 -0.000029 -2.338583 -0.252560 -0.551522 18.778676 -7.451189 0.003146 0.000003 -0.000005 -10.744948 6.448207 2.242758 -0.836066 -0.000016 0.000002 -10.930858 0.000014 -0.000005 -0.000001 0.000010 -4.087272 -1.487640 -0.000001 0.000001 0.000002 2.338565 -0.252552 -0.551454 10.342989 -7.953782 -0.000808 -0.000003 -0.000007 -10.744921 14.721368 -7.341014 -2.091019 -0.000001 -0.000004 -10.930868 0.000032 -0.000006 0.000001 -0.000014 -4.087234 -1.487644 0.000002 -0.000001 0.000003 
